<svg width="194" height="67" viewBox="0 0 194 67" fill="none" xmlns="http://www.w3.org/2000/svg">
<path d="M38.994 23.5304C38.994 26.331 38.994 29.078 38.994 31.7312C39.9052 32.1332 40.8164 32.4548 41.6338 32.9372C42.2636 33.299 42.7326 33.9288 43.3356 34.3174C44.153 34.8534 44.756 35.5904 45.493 36.2068C46.0424 36.6624 46.7124 36.984 47.3422 37.319C48.3606 37.8684 49.3924 38.391 50.4376 38.9136C50.6654 39.0208 50.9066 39.1012 51.1344 39.195C51.8982 39.5032 52.0858 39.4496 52.5816 38.8332C53.4258 37.788 54.4844 37.0108 55.744 36.515C56.883 36.0728 57.9416 36.381 58.96 36.8634C59.5094 37.1314 60.0856 37.4798 60.4742 37.9488C61.4122 39.0878 61.774 40.4948 61.439 41.9018C61.2514 42.679 60.635 43.3624 60.1526 44.0458C59.4424 45.0374 58.692 45.9888 57.955 46.9536C57.285 47.8246 56.615 48.6822 55.945 49.5532C55.0204 50.7592 54.0824 51.9518 53.1846 53.1712C52.2466 54.4442 51.3622 55.744 50.4376 57.017C49.982 57.6334 49.513 58.2632 48.9502 58.7724C48.1596 59.4826 47.235 60.032 46.1362 60.0454C41.2452 60.0722 36.3408 60.0588 31.4498 60.0856C30.82 60.0856 30.1902 60.1526 29.5604 60.1928C27.6978 60.3134 26.13 59.5764 24.589 58.5982C23.0212 57.5932 21.3864 56.7222 19.7248 55.878C18.693 55.3554 17.5808 55.007 16.5088 54.5916C16.2944 54.5112 16.0398 54.538 15.812 54.4978C15.5306 54.4442 15.2492 54.3906 14.9678 54.3102C14.7534 54.2566 14.5524 54.136 14.3514 54.136C12.7166 54.069 11.0684 54.0288 9.43357 53.9752C8.28117 53.935 7.14217 53.9216 5.98977 53.868C4.75697 53.801 3.18917 52.6218 2.93457 51.4426C2.77377 50.6654 2.85417 49.8346 2.84077 49.0172C2.84077 48.5348 2.88097 48.0658 2.88097 47.5834C2.86757 45.024 2.81397 42.4646 2.85417 39.9052C2.86757 39.0074 3.48397 38.324 4.16737 37.7746C4.95797 37.1448 5.85577 36.917 6.88757 36.8634C8.03997 36.8098 9.23257 36.5686 10.3314 36.1934C13.2258 35.1884 16.1604 34.773 19.2156 34.974C20.636 35.0678 22.0296 35.2554 23.383 35.711C23.9994 35.9254 24.5354 36.3676 25.1518 36.582C25.4868 36.7026 25.9558 36.7026 26.3042 36.5686C27.2556 36.2202 28.207 35.8316 29.1048 35.3492C30.1098 34.8132 31.0344 34.1298 31.9992 33.5402C32.9908 32.9372 33.835 32.0796 35.041 31.8384C35.2018 31.8116 35.3626 31.4498 35.3894 31.222C35.4698 30.6324 35.51 30.0428 35.51 29.4532C35.5234 27.3092 35.51 25.1518 35.5234 23.0078C35.5234 22.5522 35.51 22.3244 34.8802 22.4048C33.165 22.6192 31.423 22.8202 29.6944 22.78C27.8452 22.7264 25.9826 22.4718 24.1468 22.1368C23.1954 21.9626 22.2976 21.4802 21.3864 21.0916C19.8186 20.435 18.3446 19.6176 17.0046 18.559C15.1018 17.0716 13.601 15.2224 12.3682 13.1588C11.792 12.194 11.2024 11.2292 10.72 10.2108C10.3046 9.33978 10.05 8.38838 9.71497 7.47718C9.21917 6.15058 10.0098 4.94458 11.4302 4.75698C12.3816 4.62298 13.3196 4.31478 14.271 4.08698C14.4988 4.03338 14.7266 3.96638 14.9544 3.95298C16.8974 3.92618 18.8538 3.84578 20.7968 3.89938C22.0832 3.93958 23.3562 3.99318 24.656 4.28798C26.666 4.74358 28.542 5.48058 30.284 6.48558C31.423 7.14218 32.6424 7.78538 33.5402 8.81718C34.17 9.55418 34.7596 10.3314 35.4296 11.0148C36.515 12.1136 37.0108 13.5474 37.721 14.8606C37.8416 15.075 38.0694 15.2358 38.2436 15.4234C38.4848 15.7182 38.6724 15.6646 38.927 15.3966C40.0928 14.1772 41.4194 13.199 43.0408 12.6228C44.2468 12.194 45.4528 11.7518 46.7258 11.6044C47.7308 11.4972 48.7626 11.4972 49.7676 11.5776C50.853 11.6714 51.925 11.8724 52.9836 12.0868C53.8814 12.261 54.7658 12.5022 55.6368 12.7568C56.28 12.9444 56.8964 13.2124 57.5262 13.467C59.3352 14.1906 61.037 15.075 62.4976 16.3882C62.6718 16.549 62.8058 16.817 62.846 17.0582C63.0068 18.1838 62.4306 18.961 61.64 19.6712C60.8092 20.4216 60.0722 21.2792 59.228 22.0162C58.5044 22.646 57.754 23.316 56.8964 23.7314C55.3286 24.4952 53.6938 25.1116 52.059 25.7146C51.4828 25.929 50.8262 25.9424 50.2098 25.9826C48.5348 26.0898 46.8866 25.929 45.225 25.5672C43.3624 25.1652 41.6338 24.4952 39.932 23.6912C39.6238 23.651 39.3558 23.6242 38.994 23.5304ZM36.9304 56.6016C36.9304 56.5882 36.9304 56.5614 36.9304 56.548C38.0292 56.548 39.1146 56.6016 40.2134 56.5346C42.344 56.414 44.5014 56.9366 46.5918 56.1728C46.7526 56.1192 46.9402 56.0254 47.034 55.9048C47.3422 55.4626 47.5968 54.9802 47.9184 54.538C48.9502 53.1176 49.9954 51.6838 51.0674 50.2768C52.327 48.6286 53.6268 46.9938 54.8864 45.3456C55.8646 44.0726 56.816 42.7728 57.7808 41.4864C58.0488 41.138 58.0756 40.7896 57.9148 40.3876C57.62 39.6372 56.615 39.6506 56.0522 40.1464C55.342 40.7762 54.7122 41.4864 54.0154 42.1296C52.9166 43.148 51.8178 44.1798 50.6654 45.1312C49.714 45.9218 48.5214 46.5248 49.2048 48.0926C49.2182 48.1194 49.2048 48.173 49.2048 48.2132C49.2316 50.183 48.0524 51.3488 46.5114 52.2734C46.2166 52.4476 45.8682 52.6084 45.5332 52.6352C43.6572 52.7558 41.7812 52.8228 39.9186 52.9166C38.0962 52.997 36.2872 53.0908 34.4648 53.1846C34.103 53.198 33.701 53.1042 33.3794 53.2114C32.16 53.6268 31.021 53.2784 29.882 52.9166C28.9306 52.6084 28.1132 52.059 27.2958 51.5096C26.867 51.2282 26.3444 51.0942 25.929 50.7994C24.4014 49.7274 22.9006 48.6018 21.3864 47.5164C20.6628 46.9938 20.3948 46.1362 20.7432 45.3724C21.0782 44.6488 21.842 44.3808 22.7532 44.6622C24.3746 45.158 25.6074 46.297 26.9474 47.2484C28.1668 48.1194 29.4532 48.8564 30.7798 49.5532C31.9054 50.1428 33.1516 50.0088 34.371 49.8748C35.242 49.781 36.0862 49.446 36.9572 49.4192C39.195 49.3388 41.4462 49.379 43.684 49.3254C44.1932 49.312 44.7292 49.1646 45.1848 48.9368C45.426 48.8162 45.627 48.4142 45.627 48.1328C45.6404 47.9184 45.359 47.6102 45.1312 47.503C44.7426 47.3154 44.3004 47.2216 43.8716 47.168C43.0944 47.0742 42.3038 47.0474 41.5132 46.9536C39.7042 46.7392 37.8952 46.4846 36.0862 46.2568C34.1834 46.0156 32.3878 45.426 30.7798 44.3942C29.3996 43.4964 28.0998 42.478 26.7196 41.5802C25.5136 40.7896 24.3076 39.9722 23.0078 39.3692C21.2792 38.592 19.3764 38.4714 17.487 38.3374C15.7182 38.2168 14.0566 38.726 12.395 39.1816C11.2828 39.4898 10.184 39.8918 9.05837 40.1598C8.41517 40.3072 7.73177 40.2536 7.06177 40.267C6.31137 40.2938 6.16397 40.3876 6.20417 41.1112C6.35157 43.9386 6.12377 46.766 6.17737 49.6068C6.19077 50.5582 6.28457 50.6654 7.27617 50.652C8.70997 50.652 10.1304 50.5984 11.5642 50.6654C13.0382 50.7324 14.5122 50.8262 15.9594 51.0272C17.0046 51.1746 18.0498 51.4962 19.0414 51.8446C19.8454 52.126 20.5824 52.5816 21.3462 52.9568C21.9492 53.2516 22.5656 53.4928 23.1418 53.8144C24.4014 54.5112 25.6074 55.2884 26.8804 55.945C27.4968 56.2666 28.207 56.548 28.877 56.5614C31.5704 56.6418 34.2504 56.6016 36.9304 56.6016ZM32.83 13.7484C32.8836 13.6948 32.9372 13.6278 32.9908 13.5742C32.8434 13.333 32.7362 13.0516 32.5486 12.8506C31.5302 11.7116 30.5386 10.5726 29.1584 9.82218C27.8854 9.13878 26.6526 8.37498 25.2456 8.05338C23.584 7.67818 21.9224 7.34318 20.1804 7.39678C18.1436 7.46378 16.1068 7.35658 14.0968 7.78538C13.6144 7.89258 13.4536 8.17398 13.7082 8.61618C14.4854 9.99638 15.276 11.3632 16.0934 12.7166C16.4954 13.3866 16.9912 13.9762 17.5942 14.5122C18.6528 15.4502 19.6578 16.4418 20.8906 17.1788C22.11 17.9158 23.4098 18.3848 24.79 18.6662C25.125 18.7332 25.4064 19.0414 25.7414 19.095C26.8 19.2558 27.8854 19.43 28.9574 19.4702C30.3644 19.5104 31.7714 19.4032 33.165 19.363C33.4464 19.3496 33.6742 19.2558 33.4732 18.9342C33.2454 18.559 33.0578 18.1034 32.7228 17.8756C31.5972 17.0984 30.4582 16.3346 29.2522 15.7048C27.6308 14.8472 25.9424 14.1236 24.1066 13.802C23.4098 13.6814 22.713 13.5608 22.0564 13.333C21.5204 13.1454 21.1452 12.1136 21.306 11.5106C21.4936 10.787 21.9626 10.385 22.713 10.4386C23.9056 10.519 25.0982 10.6396 26.264 10.8272C27.0278 10.9478 27.7782 11.189 28.5018 11.457C29.011 11.6446 29.4532 11.9796 29.9356 12.2476C30.9138 12.7434 31.8786 13.2392 32.83 13.7484ZM42.076 20.971C47.503 24.1334 54.3236 22.78 58.3972 17.9158C58.3302 17.8488 58.2766 17.7684 58.2096 17.7148C58.1158 17.6478 58.0086 17.5942 57.9148 17.5406C56.3872 16.6964 54.8194 15.946 53.1176 15.5306C52.2064 15.3162 51.2952 15.0482 50.3706 14.9812C48.6152 14.8338 46.8732 14.9946 45.158 15.4636C44.8498 15.544 44.555 15.6512 44.2602 15.7584C43.885 15.8924 43.8582 16.2006 43.9788 16.482C44.0458 16.6428 44.3004 16.817 44.4612 16.817C44.7962 16.8036 45.1178 16.6026 45.4528 16.5892C46.4846 16.5356 47.5164 16.4284 48.5348 16.549C49.781 16.7098 51.0138 17.018 52.2198 17.3798C53.265 17.7014 53.3588 18.7734 53.1712 19.5372C53.0238 20.1 51.8178 20.569 51.0942 20.4484C49.8614 20.234 48.6152 20.033 47.369 20.0062C46.096 19.9794 44.8096 20.1134 43.55 20.2742C43.0274 20.3278 42.3574 20.2474 42.076 20.971Z" fill="#FDFEFD"/>
<path d="M36.9304 56.6016C34.2504 56.6016 31.557 56.6418 28.877 56.5748C28.207 56.5614 27.4968 56.28 26.8804 55.9584C25.6074 55.3018 24.388 54.5246 23.1418 53.8278C22.5656 53.5062 21.9492 53.2516 21.3462 52.9702C20.5824 52.595 19.8454 52.1394 19.0414 51.858C18.0364 51.5096 17.0046 51.188 15.9594 51.0406C14.4988 50.8262 13.0248 50.7324 11.5642 50.6788C10.1438 50.6252 8.70997 50.6654 7.27618 50.6654C6.28458 50.6654 6.20418 50.5582 6.17738 49.6202C6.12378 46.7928 6.36498 43.9654 6.20418 41.1246C6.16398 40.3876 6.31138 40.2938 7.06178 40.2804C7.73178 40.267 8.41517 40.3206 9.05837 40.1732C10.184 39.9186 11.2828 39.5032 12.395 39.195C14.0566 38.7394 15.7182 38.2302 17.487 38.3508C19.363 38.4848 21.2792 38.592 23.0078 39.3826C24.3076 39.9722 25.5136 40.803 26.7196 41.5936C28.0998 42.4914 29.3996 43.5098 30.7798 44.4076C32.3878 45.4394 34.1834 46.029 36.0862 46.2702C37.8952 46.498 39.7042 46.7526 41.5132 46.967C42.2904 47.0608 43.0944 47.0876 43.8716 47.1814C44.3004 47.235 44.7426 47.3288 45.1312 47.5164C45.359 47.6236 45.6404 47.9452 45.627 48.1462C45.6136 48.4276 45.4126 48.8296 45.1848 48.9502C44.7292 49.178 44.1932 49.3254 43.684 49.3388C41.4462 49.3924 39.195 49.3522 36.9572 49.4326C36.0862 49.4594 35.242 49.7944 34.371 49.8882C33.165 50.0222 31.9054 50.1562 30.7798 49.5666C29.4666 48.8832 28.1802 48.1328 26.9474 47.2618C25.6074 46.3104 24.3746 45.1714 22.7532 44.6756C21.842 44.3942 21.0782 44.6622 20.7432 45.3858C20.3948 46.1496 20.6628 47.0072 21.3864 47.5298C22.9006 48.6152 24.4014 49.7408 25.929 50.8128C26.3444 51.1076 26.867 51.2416 27.2958 51.523C28.1132 52.0724 28.9306 52.6218 29.882 52.93C31.021 53.2918 32.16 53.6402 33.3794 53.2248C33.701 53.1176 34.103 53.2114 34.4648 53.198C36.2872 53.1176 38.0962 53.0238 39.9186 52.93C41.7946 52.8362 43.6706 52.7692 45.5332 52.6486C45.8682 52.6218 46.2166 52.461 46.5114 52.2868C48.0524 51.3622 49.2316 50.1964 49.2048 48.2266C49.2048 48.1864 49.2182 48.1462 49.2048 48.106C48.5214 46.5382 49.714 45.9352 50.6654 45.1446C51.8178 44.1932 52.9166 43.1614 54.0154 42.143C54.7122 41.4998 55.3554 40.803 56.0522 40.1598C56.615 39.664 57.62 39.6506 57.9148 40.401C58.0756 40.803 58.0488 41.1514 57.7808 41.4998C56.8026 42.7728 55.8646 44.0726 54.8864 45.359C53.6268 47.0072 52.327 48.6286 51.0674 50.2902C49.9954 51.6972 48.9502 53.1176 47.9184 54.5514C47.5968 54.9936 47.3422 55.476 47.034 55.9182C46.9402 56.0522 46.7526 56.1326 46.5918 56.1862C44.5014 56.9366 42.344 56.414 40.2134 56.548C39.128 56.615 38.0292 56.5614 36.9304 56.5614C36.9304 56.5614 36.9304 56.5882 36.9304 56.6016Z" fill="#2BAA5B"/>
<path d="M32.8301 13.7484C31.8653 13.2392 30.9139 12.7434 29.9491 12.2342C29.4667 11.9796 29.0245 11.6446 28.5153 11.4436C27.7917 11.1756 27.0413 10.9344 26.2775 10.8138C25.0983 10.6262 23.9057 10.519 22.7265 10.4252C21.9761 10.3716 21.5071 10.7736 21.3195 11.4972C21.1587 12.0868 21.5205 13.1186 22.0699 13.3196C22.7265 13.5474 23.4233 13.668 24.1201 13.7886C25.9559 14.0968 27.6443 14.8204 29.2657 15.6914C30.4717 16.3346 31.6107 17.085 32.7363 17.8622C33.0713 18.09 33.2589 18.559 33.4867 18.9208C33.6743 19.2424 33.4599 19.3496 33.1785 19.3496C31.7715 19.3898 30.3645 19.497 28.9709 19.4568C27.8989 19.43 26.8269 19.2558 25.7549 19.0816C25.4199 19.028 25.1385 18.7332 24.8035 18.6528C23.4233 18.358 22.1235 17.9024 20.9041 17.1654C19.6713 16.4284 18.6663 15.4368 17.6077 14.4988C17.0047 13.9628 16.5089 13.3732 16.1069 12.7032C15.2895 11.3498 14.4989 9.98298 13.7217 8.60278C13.4671 8.16058 13.6279 7.86578 14.1103 7.77198C16.1203 7.34318 18.1571 7.45038 20.1939 7.38338C21.9225 7.31638 23.5975 7.66478 25.2591 8.03998C26.6795 8.36158 27.9123 9.12538 29.1719 9.80878C30.5655 10.5592 31.5571 11.6982 32.5621 12.8372C32.7497 13.0516 32.8569 13.3196 33.0043 13.5608C32.9373 13.6278 32.8837 13.6948 32.8301 13.7484Z" fill="#2BAA5B"/>
<path d="M42.0759 20.971C42.3573 20.2474 43.0273 20.3144 43.5365 20.2474C44.8095 20.0866 46.0825 19.9526 47.3555 19.9794C48.6017 20.0062 49.8479 20.2072 51.0807 20.4216C51.8043 20.5422 53.0103 20.0866 53.1577 19.5104C53.3453 18.7466 53.2515 17.6746 52.2063 17.353C51.0003 16.9912 49.7675 16.683 48.5213 16.5222C47.5163 16.3882 46.4711 16.5088 45.4393 16.5624C45.1043 16.5758 44.7827 16.7768 44.4477 16.7902C44.2869 16.8036 44.0323 16.616 43.9653 16.4552C43.8313 16.1738 43.8581 15.8656 44.2467 15.7316C44.5415 15.6244 44.8363 15.5172 45.1445 15.4368C46.8463 14.9544 48.6017 14.807 50.3571 14.9544C51.2817 15.0348 52.1929 15.2894 53.1041 15.5038C54.8059 15.9192 56.3737 16.6696 57.9013 17.5138C58.0085 17.5674 58.1157 17.621 58.1961 17.688C58.2765 17.7416 58.3301 17.822 58.3837 17.889C54.3235 22.7934 47.5163 24.1334 42.0759 20.971Z" fill="#2BAA5B"/>
<path d="M84.905 40.1665C83.861 40.1665 82.8926 40.003 81.9996 39.6759C81.1191 39.3364 80.3519 38.8584 79.6979 38.2421C79.0564 37.6258 78.5533 36.9026 78.1886 36.0725C77.8238 35.2298 77.6415 34.3054 77.6415 33.2992C77.6415 32.293 77.8238 31.3748 78.1886 30.5447C78.5533 29.702 79.0564 28.9725 79.6979 28.3562C80.3519 27.7399 81.1191 27.2682 81.9996 26.9412C82.8926 26.6016 83.861 26.4318 84.905 26.4318C86.125 26.4318 87.2129 26.6457 88.1688 27.0733C89.1373 27.5009 89.9422 28.1172 90.5837 28.9222L88.2066 31.0729C87.7789 30.5698 87.3073 30.1862 86.7916 29.9221C86.2885 29.658 85.7225 29.5259 85.0936 29.5259C84.5528 29.5259 84.056 29.6139 83.6032 29.79C83.1504 29.9661 82.7605 30.224 82.4335 30.5635C82.119 30.8906 81.8675 31.2868 81.6788 31.7521C81.5027 32.2175 81.4147 32.7332 81.4147 33.2992C81.4147 33.8651 81.5027 34.3808 81.6788 34.8462C81.8675 35.3116 82.119 35.714 82.4335 36.0536C82.7605 36.3806 83.1504 36.6322 83.6032 36.8083C84.056 36.9844 84.5528 37.0724 85.0936 37.0724C85.7225 37.0724 86.2885 36.9403 86.7916 36.6762C87.3073 36.4121 87.7789 36.0285 88.2066 35.5254L90.5837 37.6761C89.9422 38.4685 89.1373 39.0848 88.1688 39.525C87.2129 39.9527 86.125 40.1665 84.905 40.1665ZM83.7541 44.3548C83.4397 44.3548 83.1127 44.317 82.7731 44.2416C82.4461 44.1661 82.1756 44.0718 81.9618 43.9586L82.4523 42.5436C82.6159 42.6191 82.7919 42.682 82.9806 42.7323C83.1818 42.7826 83.3957 42.8077 83.6221 42.8077C83.9616 42.8077 84.2006 42.7574 84.339 42.6568C84.4899 42.5562 84.5654 42.4304 84.5654 42.2795C84.5654 42.1286 84.4962 42.0091 84.3578 41.921C84.2321 41.8456 84.0182 41.8078 83.7164 41.8078H83.0183L83.5089 39.7325H85.3766L85.1125 40.8645C85.6911 40.9274 86.1061 41.1098 86.3577 41.4116C86.6092 41.7135 86.735 42.0405 86.735 42.3927C86.735 42.9964 86.4646 43.4744 85.9237 43.8265C85.3829 44.1787 84.6597 44.3548 83.7541 44.3548ZM90.4434 39.9023L96.2731 26.696H99.952L105.801 39.9023H101.914L97.3484 28.526H98.82L94.2544 39.9023H90.4434ZM93.6318 37.3365L94.594 34.5821H101.046L102.008 37.3365H93.6318ZM112.35 39.9023V26.696H118.387C119.595 26.696 120.632 26.8909 121.5 27.2808C122.38 27.6707 123.06 28.2367 123.538 28.9788C124.016 29.7083 124.254 30.5761 124.254 31.5823C124.254 32.576 124.016 33.4375 123.538 34.167C123.06 34.8965 122.38 35.4625 121.5 35.865C120.632 36.2549 119.595 36.4498 118.387 36.4498H114.425L116.085 34.8273V39.9023H112.35ZM116.085 35.2235L114.425 33.5067H118.161C118.941 33.5067 119.519 33.3369 119.896 32.9973C120.286 32.6577 120.481 32.186 120.481 31.5823C120.481 30.966 120.286 30.4881 119.896 30.1485C119.519 29.8089 118.941 29.6391 118.161 29.6391H114.425L116.085 27.9223V35.2235ZM132.92 40.1665C131.863 40.1665 130.889 39.9967 129.996 39.6571C129.103 39.3175 128.323 38.8395 127.656 38.2232C127.002 37.5944 126.493 36.8649 126.128 36.0348C125.763 35.2046 125.581 34.2928 125.581 33.2992C125.581 32.3055 125.763 31.3937 126.128 30.5635C126.493 29.7334 127.002 29.0102 127.656 28.3939C128.323 27.7651 129.103 27.2808 129.996 26.9412C130.889 26.6016 131.863 26.4318 132.92 26.4318C133.989 26.4318 134.964 26.6016 135.844 26.9412C136.737 27.2808 137.511 27.7651 138.165 28.3939C138.819 29.0102 139.328 29.7334 139.693 30.5635C140.07 31.3937 140.259 32.3055 140.259 33.2992C140.259 34.2928 140.07 35.2109 139.693 36.0536C139.328 36.8837 138.819 37.6069 138.165 38.2232C137.511 38.8395 136.737 39.3175 135.844 39.6571C134.964 39.9967 133.989 40.1665 132.92 40.1665ZM132.92 37.0724C133.423 37.0724 133.888 36.9844 134.316 36.8083C134.756 36.6322 135.133 36.3806 135.448 36.0536C135.775 35.714 136.026 35.3116 136.203 34.8462C136.391 34.3808 136.486 33.8651 136.486 33.2992C136.486 32.7206 136.391 32.2049 136.203 31.7521C136.026 31.2868 135.775 30.8906 135.448 30.5635C135.133 30.224 134.756 29.9661 134.316 29.79C133.888 29.6139 133.423 29.5259 132.92 29.5259C132.417 29.5259 131.945 29.6139 131.505 29.79C131.077 29.9661 130.7 30.224 130.373 30.5635C130.058 30.8906 129.807 31.2868 129.618 31.7521C129.442 32.2049 129.354 32.7206 129.354 33.2992C129.354 33.8651 129.442 34.3808 129.618 34.8462C129.807 35.3116 130.058 35.714 130.373 36.0536C130.7 36.3806 131.077 36.6322 131.505 36.8083C131.945 36.9844 132.417 37.0724 132.92 37.0724ZM144.842 39.9023V29.658H140.786V26.696H152.615V29.658H148.578V39.9023H144.842ZM151.759 39.9023L157.588 26.696H161.267L167.116 39.9023H163.229L158.664 28.526H160.135L155.57 39.9023H151.759ZM154.947 37.3365L155.909 34.5821H162.362L163.324 37.3365H154.947ZM174.594 40.1665C173.55 40.1665 172.581 40.003 171.688 39.6759C170.795 39.3364 170.022 38.8584 169.368 38.2421C168.726 37.6258 168.223 36.9026 167.859 36.0725C167.494 35.2298 167.311 34.3054 167.311 33.2992C167.311 32.293 167.494 31.3748 167.859 30.5447C168.223 29.702 168.733 28.9725 169.387 28.3562C170.041 27.7399 170.814 27.2682 171.707 26.9412C172.613 26.6016 173.6 26.4318 174.669 26.4318C175.914 26.4318 177.028 26.6394 178.009 27.0544C178.99 27.4695 179.801 28.0669 180.442 28.8467L178.065 30.9975C177.612 30.507 177.122 30.1422 176.594 29.9032C176.078 29.6517 175.499 29.5259 174.858 29.5259C174.292 29.5259 173.776 29.6139 173.311 29.79C172.846 29.9661 172.449 30.224 172.122 30.5635C171.795 30.8906 171.537 31.2868 171.349 31.7521C171.173 32.2049 171.085 32.7206 171.085 33.2992C171.085 33.8526 171.173 34.362 171.349 34.8273C171.537 35.2927 171.795 35.6952 172.122 36.0348C172.449 36.3618 172.839 36.6196 173.292 36.8083C173.757 36.9844 174.267 37.0724 174.82 37.0724C175.374 37.0724 175.914 36.9844 176.443 36.8083C176.971 36.6196 177.505 36.3052 178.046 35.865L180.14 38.4874C179.386 39.0282 178.512 39.4433 177.518 39.7325C176.524 40.0218 175.55 40.1665 174.594 40.1665ZM176.839 37.9969V33.0162H180.14V38.4874L176.839 37.9969ZM185.942 31.8087H192.074V34.6009H185.942V31.8087ZM186.207 37.0158H193.112V39.9023H182.509V26.696H192.866V29.5825H186.207V37.0158Z" fill="white"/>
</svg>
